<?xml version="1.0" standalone="no"?>
<!DOCTYPE svg PUBLIC "-//W3C//DTD SVG 1.1//EN" "http://www.w3.org/Graphics/SVG/1.1/DTD/svg11.dtd" >
<svg xmlns="http://www.w3.org/2000/svg">
<metadata>Generated by IcoMoon</metadata>
<defs>
<font id="rocket-font" horiz-adv-x="1024">
<font-face units-per-em="1024" ascent="960" descent="-64" />
<missing-glyph horiz-adv-x="1024" />
<glyph unicode="&#x20;" d="" horiz-adv-x="512" />
<glyph unicode="&#xe600;" d="M255.243 704l-254.485-254.485 66.651-0.606-33.325-0.909-33.325-0.757 509.273-510.031 66.802 113.307 66.954 113.307-101.946 100.734c-55.896 55.29-120.729 119.517-143.905 142.391l-41.96 41.808 129.515 125.728c71.347 69.226 136.028 131.938 144.057 139.361l14.239 13.633-9.543 16.663c-22.722 39.385-70.135 121.789-95.583 166.173-14.996 26.509-27.721 48.019-28.175 48.17-0.454 0-115.276-114.518-255.243-254.485z" horiz-adv-x="645" />
<glyph unicode="&#xe601;" d="M304.558 958.291c-79.714-4.972-148.395-31.233-200.449-76.295-59.358-51.433-95.252-134.254-101.934-235.411l-1.088-16.005h197.497l1.088 10.566c4.040 43.353 19.268 83.598 42.421 111.879 12.276 15.073 34.807 28.28 59.047 34.807 17.559 4.662 59.513 5.749 81.423 2.020 29.213-4.817 54.541-17.093 67.749-32.787 16.005-18.957 29.368-47.859 33.719-73.187 6.837-38.691-0.311-74.43-21.133-105.974-13.985-21.288-24.862-31.854-64.33-62.776-45.528-35.739-59.358-47.548-77.849-65.884-35.273-35.584-47.704-60.446-55.629-112.345-2.797-17.559-6.526-58.115-7.925-85.774l-1.088-19.89h186.775v14.762c0 42.887 7.459 72.566 24.707 98.671 11.809 18.18 21.91 27.659 61.999 58.892 69.303 54.23 103.488 85.463 122.911 112.811 19.113 27.193 33.564 62.466 39.934 97.894 3.263 18.802 4.662 64.33 2.331 86.395-8.702 85.307-44.13 146.996-109.859 190.971-61.067 40.867-130.991 62.155-218.94 66.816-32.165 1.709-33.097 1.709-61.378-0.155zM251.727 37.468v-99.137l205.111 0.777v197.341h-205.111v-98.981z" horiz-adv-x="699" />
<glyph unicode="&#xe602;" d="M111.066 848.934l-108.786-109.014 290.78-290.78-290.78-290.78 108.786-109.014 109.014-108.786 290.78 290.78 290.78-290.78 109.014 108.786 108.786 109.014-290.78 290.78 290.78 290.78-108.786 109.014-109.014 108.786-290.78-290.78-290.78 290.78-109.014-108.786z" />
<glyph unicode="&#xe603;" d="M604.16 596.874c-134.695-199.68-246.154-363.52-248.123-363.914s-46.868 47.655-100.037 106.732c-53.169 59.471-98.068 107.914-100.431 107.914-5.12-0.394-149.662-157.932-149.662-163.446 0-6.302 373.366-344.615 376.517-341.071 6.695 7.877 625.822 910.178 627.791 914.905 1.182 3.938-23.237 20.48-77.588 52.775-43.323 25.994-80.345 47.655-81.526 48.049s-112.246-162.658-246.942-361.945z" horiz-adv-x="1016" />
<glyph unicode="&#xe604;" d="M470.235 856.475l-305.951-778.802h125.166l62.58 166.886h347.676l62.584-166.886h125.161l-305.962 778.802h-111.254zM393.755 355.818l132.113 352.407 132.113-352.407h-264.227z" />
<glyph unicode="&#xe605;" d="M768 789.333v42.667c0 23.467-19.2 42.667-42.667 42.667h-512c-23.467 0-42.667-19.2-42.667-42.667v-170.667c0-23.467 19.2-42.667 42.667-42.667h512c23.467 0 42.667 19.2 42.667 42.667v42.667h42.667v-170.667h-426.667v-469.333c0-23.467 19.2-42.667 42.667-42.667h85.333c23.467 0 42.667 19.2 42.667 42.667v384h341.333v341.333h-128z" />
<glyph unicode="&#xe606;" d="M166.4 448c0 72.96 59.307 132.267 132.267 132.267h170.667v81.067h-170.667c-117.76 0-213.333-95.573-213.333-213.333s95.573-213.333 213.333-213.333h170.667v81.067h-170.667c-72.96 0-132.267 59.307-132.267 132.267zM341.333 405.333h341.333v85.333h-341.333v-85.333zM725.333 661.333h-170.667v-81.067h170.667c72.96 0 132.267-59.307 132.267-132.267s-59.307-132.267-132.267-132.267h-170.667v-81.067h170.667c117.76 0 213.333 95.573 213.333 213.333s-95.573 213.333-213.333 213.333z" />
<glyph unicode="&#xe607;" d="M896 149.333v597.333c0 47.147-38.187 85.333-85.333 85.333h-597.333c-47.147 0-85.333-38.187-85.333-85.333v-597.333c0-47.147 38.187-85.333 85.333-85.333h597.333c47.147 0 85.333 38.187 85.333 85.333zM362.667 384l106.667-128.213 149.333 192.213 192-256h-597.333l149.333 192z" />
<glyph unicode="&#xe608;" d="M0 921.839v-31.801h1144.845v63.602h-1144.845v-31.801zM190.807 731.031v-31.801h763.23v63.602h-763.23v-31.801zM0 540.224v-31.801h1144.845v63.602h-1144.845v-31.801zM190.807 349.416v-31.801h763.23v63.602h-763.23v-31.801zM0 158.609v-31.801h1144.845v63.602h-1144.845v-31.801zM190.807-32.199v-31.801h763.23v63.602h-763.23v-31.801z" horiz-adv-x="1145" />
<glyph unicode="&#xe609;" d="M0 922.074v-31.605h1137.778v63.21h-1137.778v-31.605zM0 732.444v-31.605h821.728v63.21h-821.728v-31.605zM0 542.815v-31.605h1137.778v63.21h-1137.778v-31.605zM0 353.185v-31.605h821.728v63.21h-821.728v-31.605zM0 163.556v-31.605h1137.778v63.21h-1137.778v-31.605zM0-26.074v-31.605h821.728v63.21h-821.728v-31.605z" horiz-adv-x="1138" />
<glyph unicode="&#xe60a;" d="M0 921.839v-31.801h1144.845v63.602h-1144.845v-31.801zM318.012 731.031v-31.801h826.832v63.602h-826.832v-31.801zM0 540.224v-31.801h1144.845v63.602h-1144.845v-31.801zM318.012 349.416v-31.801h826.832v63.602h-826.832v-31.801zM0 158.609v-31.801h1144.845v63.602h-1144.845v-31.801zM318.012-32.199v-31.801h826.832v63.602h-826.832v-31.801z" horiz-adv-x="1145" />
<glyph unicode="&#xe60b;" d="M245.497 749.292c-122.092-104.369-223.836-192.985-224.492-196.923-1.313-3.282 48.574-5.908 126.031-5.908h128.656v-393.846h393.846v393.846h128.656c77.456 0 127.344 2.626 126.031 5.908-2.626 7.877-445.703 387.938-451.61 387.938-2.626 0-104.369-85.99-227.118-191.015zM275.692-11.487v-32.821h393.846v65.641h-393.846v-32.821z" horiz-adv-x="945" />
<glyph unicode="&#xe60c;" d="M206.352 947.588c-11.636-31.030-5.43-39.564 41.891-51.976 81.455-23.273 81.455 8.533-6.982-442.182-42.667-216.436-81.455-399.515-86.109-408.824-13.188-24.824-39.564-38.012-89.212-43.442-48.873-5.43-58.182-11.636-58.182-40.339v-17.067l246.691 1.552 245.915 2.327 2.327 25.6c2.327 21.721 0 24.824-15.515 24.824-34.133 0-76.024 16.291-88.436 34.133-10.861 17.067-6.206 46.545 66.715 416.582 43.442 218.764 82.23 404.17 86.109 411.927 10.861 19.394 32.582 29.479 90.764 40.339 50.424 9.309 51.976 10.085 54.303 34.133l2.327 24.824h-243.588c-215.661 0-245.139-1.552-249.018-12.412z" horiz-adv-x="706" />
<glyph unicode="&#xe60d;" d="M39.153 683.671c2.259-264.282 3.012-270.306 20.329-314.729 24.847-61.741 94.118-131.012 152.847-152.847 94.871-35.388 229.647-35.388 324.518-0.753 84.329 31.624 152.847 115.953 170.918 210.824 4.518 21.835 7.529 148.329 7.529 282.353v243.953h-165.647v-249.976c0-282.353-1.506-289.882-56.471-335.812-67.765-55.718-191.247-48.188-249.976 15.059-38.4 40.659-39.906 55.718-39.906 322.259v248.471h-166.4l2.259-268.8zM0-26.353v-37.647h752.941v75.294h-752.941v-37.647z" horiz-adv-x="753" />
<glyph unicode="&#xe60e;" d="M284.116 732.538v-227.462l-167.256-0.423 154.403-176.050c84.981-96.819 154.742-175.966 155.164-175.881 0.338 0.085 70.099 79.316 154.995 176.050l154.488 175.881-167.679 0.423v454.923h-284.116v-227.462zM0-9.037v-54.117h852.347v108.235h-852.347v-54.117z" horiz-adv-x="853" />
<glyph unicode="&#xe60f;" d="M0.232 448.348l0.348-511.768h129.738l0.348 511.768 0.232 511.652h-130.896l0.232-511.652zM470.878 634.15c-115.953-101.821-210.824-185.571-210.824-186.034s94.871-84.098 210.824-185.919l210.824-185.224 0.348 100.431 0.232 100.315h546.751v340.561h-546.751l-0.232 100.547-0.348 100.431-210.824-185.108z" horiz-adv-x="1229" />
<glyph unicode="&#xe610;" d="M1098.539 448v-512h129.527v1024h-129.527v-512zM546.215 719.397v-100.323h-546.215v-342.148h546.215l0.244-100.2 0.367-100.2 210.788 185.004c115.842 101.789 210.91 185.615 211.154 186.226 0.244 0.855-408.011 360.477-419.742 369.642l-2.811 2.2v-100.2z" horiz-adv-x="1229" />
<glyph unicode="&#xe611;" d="M0 905.628v-54.372h847.704v108.743h-847.704v-54.372zM269.716 567.7l-154.053-176.543 166.905-0.412v-454.745h282.568v454.745l166.905 0.412-153.065 175.39c-84.111 96.469-153.476 175.967-154.135 176.543-0.989 0.989-24.632-25.785-155.124-175.39z" horiz-adv-x="848" />
<glyph unicode="&#xe612;" d="M857.6 91.699h-665.6c-56.525 0-102.4 45.875-102.4 102.4v507.699c0 56.627 45.875 102.451 102.4 102.451h665.6c56.576 0 102.4-45.875 102.4-102.451v-507.699c0-56.525-45.824-102.4-102.4-102.4v0zM861.901 603.75c0 56.525-45.875 102.4-102.4 102.4h-465.101c-56.525 0-102.4-45.875-102.4-102.4v-311.45c0-56.525 45.875-102.4 102.4-102.4h465.101c56.525 0 102.4 45.875 102.4 102.4v311.45zM562.176 650.598h-86.067l-157.030-403.2h86.323l33.331 91.597h161.075l35.226-91.597h88.576l-161.434 403.2zM463.718 406.835l54.477 149.658 55.552-149.658h-110.029z" />
<glyph unicode="&#xe613;" d="M857.907 92.774h-665.6c-56.525 0-102.4 45.773-102.4 102.4v148.582h102.4v-50.534c0-56.525 45.875-102.4 102.4-102.4h465.101c56.525 0 102.4 45.875 102.4 102.4v311.45c0 56.627-45.875 102.4-102.4 102.4h-465.101c-56.525 0-102.4-45.773-102.4-102.4v-55.45h-102.4v153.6c0 56.525 45.875 102.4 102.4 102.4h665.6c56.576 0 102.4-45.875 102.4-102.4v-507.699c0-56.627-45.824-102.349-102.4-102.349v0zM677.376 447.642l-169.574 146.278v-95.846h-418.509v-103.066h418.509v-93.645z" />
<glyph unicode="&#xe614;" d="M840.806-51.507h-463.309c-51.558 0-93.44 41.882-93.44 93.389v607.334c0 51.661 41.882 93.44 93.44 93.44h463.309c51.61 0 93.389-41.779 93.389-93.44v-607.334c0-51.507-41.779-93.389-93.389-93.389v0zM844.698 559.718c0 51.558-41.882 93.389-93.491 93.389h-284.109c-51.61 0-93.491-41.83-93.491-93.389v-424.448c0-51.507 41.882-93.389 93.491-93.389h284.109c51.61 0 93.491 41.882 93.491 93.389v424.448zM279.706 849.459c-56.525 0-102.4-45.875-102.4-102.4v-465.050c0-0.922 0.256-1.587 0.256-2.406h-98.355v565.504c0 56.576 45.875 102.4 102.4 102.4h424.346v-99.533c-4.813 0.768-9.626 1.485-14.694 1.485h-311.552z" />
<glyph unicode="&#xe615;" d="M414.72 949.12c-24.32-15.36-30.72-33.92-30.72-91.52 0-49.28-0.64-50.56-17.28-56.32-16-5.12-21.76-2.56-56.96 30.72-64 59.52-81.92 56.96-160-21.76-80-80-81.92-102.4-16.64-166.4 30.080-28.8 31.36-32 25.6-49.28-6.4-18.56-7.040-18.56-57.6-18.56-56.32 0-81.92-10.24-94.080-36.48-8.96-19.84-8.96-163.2 0-183.040 12.16-26.24 37.76-36.48 94.080-36.48 50.56 0 51.2 0 57.6-18.56 5.76-17.28 4.48-20.48-25.6-49.28-65.92-64-63.36-86.4 16.64-166.4 78.72-78.72 101.76-81.28 163.2-19.2 32 32 35.2 33.92 52.48 28.16 18.56-6.4 18.56-7.040 18.56-56.96 0-90.24 14.080-101.76 128-101.76s128 11.52 128 101.76c0 49.92 0 50.56 18.56 56.96 17.28 5.76 20.48 3.84 52.48-28.16 61.44-62.080 84.48-59.52 163.2 19.2 80 80 81.92 102.4 16.64 165.76-30.080 29.44-31.36 32.64-24.96 49.92 7.040 18.56 7.68 18.56 57.6 18.56 55.68 0 81.28 10.24 93.44 36.48 8.96 19.84 8.96 163.2 0 183.040-12.16 26.24-37.76 36.48-93.44 36.48-49.92 0-50.56 0-57.6 18.56-6.4 17.28-5.12 20.48 24.96 49.92 65.28 63.36 63.36 85.76-16.64 165.76-78.72 78.72-96 81.28-159.36 22.4-35.84-33.92-41.6-36.48-56.96-31.36-17.28 5.76-17.92 7.040-17.92 56.32 0 91.52-14.080 102.4-129.28 102.4-62.080 0-82.56-2.56-96-10.88zM568.32 630.4c47.36-14.080 92.16-52.48 113.92-97.28 15.36-30.72 18.56-45.44 18.56-85.12 0-54.4-13.44-90.88-47.36-129.92-52.48-58.88-151.68-77.44-225.92-40.96-68.48 33.92-103.68 91.52-104.32 170.88 0 60.8 21.76 110.080 64.64 145.28 52.48 42.88 116.48 55.68 180.48 37.12z" />
<glyph unicode="&#xe616;" d="M256.64 769.28l-252.16-190.080 123.52-3.84v-511.36h-16c-8.96 0-23.68-7.040-32-16-14.080-13.44-16-21.12-16-64v-48h320v384h256v-384h320v48c0 42.88-1.92 50.56-16 64-8.32 8.96-23.040 16-32 16h-16v511.36l123.52 3.84-253.44 190.72c-139.52 104.32-254.72 190.080-255.36 189.44-1.28 0-115.2-85.76-254.080-190.080z" />
<glyph unicode="&#xe617;" d="M226.011 952.686c-40.96-16.091-39.497-0.731-39.497-506.149v-465.92l35.109-40.96h288.914c273.554 0 289.646 0.731 304.274 13.897 8.046 7.314 18.286 25.6 22.674 40.229 9.509 35.84 9.509 872.594 0 908.434-15.36 55.589-4.389 54.126-317.44 55.589-152.869 0.731-285.989-1.463-294.034-5.12zM698.514 484.571v-329.143h-365.714v658.286h365.714v-329.143z" />
<glyph unicode="&#xe618;" d="M734.72 949.12c-8.96-5.76-19.84-17.28-23.68-25.6-5.12-10.24-7.040-140.8-7.040-405.12v-390.4h256v390.4c0 266.24-1.92 394.88-7.040 405.12-13.44 30.080-35.84 36.48-122.24 36.48-62.080 0-82.56-2.56-96-10.88zM414.72 693.12c-8.96-5.76-19.84-17.28-23.68-25.6-4.48-10.24-7.040-103.68-7.040-277.12v-262.4h256v262.4c0 174.72-2.56 266.88-7.040 277.12-13.44 30.080-35.84 36.48-122.24 36.48-62.080 0-82.56-2.56-96-10.88zM94.72 437.12c-8.96-5.76-19.84-17.28-23.68-25.6-4.48-9.6-7.040-67.2-7.040-149.12v-134.4h256v134.4c0 82.56-2.56 139.52-7.040 149.12-13.44 30.080-35.84 36.48-122.24 36.48-62.080 0-82.56-2.56-96-10.88zM0 0v-64h1024v128h-1024v-64z" />
<glyph unicode="&#xe619;" d="M448.398 898.306c-160.278-152.646-241.689-328.825-251.866-545.709-5.724-127.841 18.445-254.41 69.963-367.622l22.261-48.974h446.489l22.261 48.974c85.227 186.355 94.132 411.508 24.805 606.132-22.897 64.239-66.147 142.47-111.304 202.892-36.253 48.338-147.558 159.642-159.006 159.642-3.18 0-31.801-24.805-63.602-55.334zM567.97 687.145c103.672-53.426 89.68-200.984-22.261-233.421-30.529-8.904-36.889-8.904-67.419 0-112.576 33.073-125.933 179.359-20.353 234.693 26.713 14.629 80.775 13.357 110.032-1.272zM85.227 139.528c-23.533-13.993-51.518-35.617-62.33-47.702-17.809-20.989-19.717-26.713-19.717-66.783s1.908-46.43 18.445-64.875l18.445-20.989 80.139-1.908c43.886-1.272 80.139-1.272 80.139 0s-8.904 27.349-19.081 58.514c-10.812 31.165-24.169 82.047-29.893 113.212-5.724 30.529-13.993 55.97-17.173 55.97-3.816-0.636-26.077-12.084-48.974-25.441zM874.534 119.175c-6.996-41.978-35.617-143.742-47.702-172.363-4.452-11.448-0.636-12.084 75.687-9.54l81.411 1.908 18.445 20.989c16.537 18.445 18.445 24.805 18.445 64.875s-1.908 45.794-19.717 66.783c-18.445 20.989-98.584 73.143-112.576 73.143-3.18 0-9.54-20.989-13.993-45.794z" />
<glyph unicode="&#xe61a;" d="M212.432 935.195c-29.257-29.257-29.257-54.698 0-83.955 20.353-20.353 24.169-21.625 63.602-21.625h41.978v-255.682l-156.462-280.487c-85.863-154.554-157.734-290.027-159.642-301.476-2.544-15.901 0-23.533 12.72-36.253l16.537-16.537h480.835c471.93 0 480.199 0 492.919 12.72 26.077 26.077 20.989 38.798-146.286 340.273l-159.006 286.847v250.594h38.161c60.422 0 89.043 20.353 89.043 63.602 0 54.062-22.897 63.602-152.646 63.602h-101.764v-381.615h-127.205v381.615h-211.16l-21.625-21.625zM604.224 374.857c22.261-11.448 31.801-27.349 31.801-54.062s-9.54-42.614-31.801-54.062c-27.349-13.993-48.338-11.448-71.235 8.904-17.173 15.265-20.989 22.897-20.989 45.158s3.816 29.893 20.989 45.158c22.897 20.353 43.886 22.897 71.235 8.904zM349.178 248.288c42.614-22.261 41.342-90.952-2.544-110.668-27.985-12.72-47.702-8.904-70.599 13.993-29.257 29.257-29.257 54.698 0 83.955 23.533 23.533 44.522 27.349 73.143 12.72z" />
<glyph unicode="&#xe61b;" d="M748 904l-56-56 223.2-223.2 52 48.8c28.8 27.2 53.6 52.8 55.2 57.6 0.8 4.8-48 58.4-108 119.2l-110.4 109.6-56-56zM319.2 474.4l-309.6-310.4-4.8-110.4-5.6-109.6h236.8l620 620-110.4 110.4c-60 60-111.2 109.6-113.6 109.6s-143.2-139.2-312.8-309.6z" horiz-adv-x="1032" />
<glyph unicode="&#xe61c;" d="M126.386 940.627c-40.591-66.422-117.16-202.032-117.16-209.413 0-3.69 62.732-69.189 138.378-143.914 76.569-75.647 138.378-139.301 138.378-142.068s-62.732-64.577-138.378-138.378c-75.647-72.879-138.378-137.456-138.378-142.068 0-10.148 62.732-121.773 108.858-195.575l22.141-35.978 252.771 252.771c139.301 139.301 252.771 256.461 252.771 261.996s-113.47 122.695-252.771 261.996c-250.926 250.926-252.771 252.771-266.609 230.631z" horiz-adv-x="655" />
<glyph unicode="&#xe61d;" d="M450.56 956.928c-94.72-17.408-156.16-40.448-218.624-81.92-109.568-73.216-185.856-180.736-217.6-307.712-16.896-67.584-15.872-179.712 2.56-248.32 49.152-185.344 196.608-326.656 385.024-370.688 56.32-13.312 163.84-13.312 220.16 0 188.416 44.032 335.872 185.344 385.024 370.688 18.432 68.608 19.456 180.736 2.56 248.32-47.616 189.952-195.584 335.36-386.048 379.904-35.84 8.704-145.92 14.848-173.056 9.728zM627.2 847.36c78.336-24.576 153.088-73.728 202.24-134.656 30.72-37.376 67.584-110.080 79.36-156.672 47.104-185.344-43.52-382.464-213.504-465.408-70.144-34.304-109.568-44.032-183.296-44.032s-113.152 9.728-183.296 44.032c-144.896 70.656-235.52 226.304-224.768 387.584 3.584 59.392 14.848 100.864 41.984 156.672 50.176 102.912 141.312 179.712 250.88 211.456 50.688 14.848 58.88 15.872 130.56 13.824 47.104-1.536 73.728-5.12 99.84-12.8zM517.632 730.624c-43.008-6.656-65.536-58.88-41.984-95.232 13.312-19.456 29.184-28.16 53.248-28.672 26.624 0 46.592 11.264 56.832 32.768 23.552 50.176-12.8 99.328-68.096 91.136zM487.424 502.272l-18.944-17.408-1.536-128.512c-1.536-109.568-0.512-130.56 6.656-143.872 19.968-38.912 70.656-46.592 101.888-15.872l15.872 15.872v272.384l-18.944 17.408c-15.872 14.336-23.040 17.408-42.496 17.408s-26.624-3.072-42.496-17.408z" />
<glyph unicode="&#xea0a;" d="M992 576h-352v352c0 17.672-14.328 32-32 32h-192c-17.672 0-32-14.328-32-32v-352h-352c-17.672 0-32-14.328-32-32v-192c0-17.672 14.328-32 32-32h352v-352c0-17.672 14.328-32 32-32h192c17.672 0 32 14.328 32 32v352h352c17.672 0 32 14.328 32 32v192c0 17.672-14.328 32-32 32z" />
<glyph unicode="&#xea0b;" d="M0 544v-192c0-17.672 14.328-32 32-32h960c17.672 0 32 14.328 32 32v192c0 17.672-14.328 32-32 32h-960c-17.672 0-32-14.328-32-32z" />
</font>
</defs>
</svg>
